<svg xmlns="http://www.w3.org/2000/svg" viewBox="0 0 64 64"><defs><style>.a{fill:#000842;}.b{fill:#fff;}.c,.e{fill:#f6ae2d;}.d{fill:#f80;}.e{stroke:#fff;stroke-miterlimit:10;}</style></defs><rect class="a" width="64" height="64"/><polygon class="b" points="53.91 49.96 10 49.96 9.91 23.2 53.91 23.12 53.91 49.96"/><path class="c" d="M10,50H24.11V36.54H10Z"/><path class="b" d="M22.54,41.54v5.53a.7.7,0,0,1-.78.61H18.62a.72.72,0,0,1-.78-.61V41.54A2.15,2.15,0,0,1,20.2,39.7,2.13,2.13,0,0,1,22.54,41.54Z"/><path class="b" d="M16.28,41.54v5.53a.72.72,0,0,1-.79.61H12.36a.71.71,0,0,1-.79-.61V41.54a2.14,2.14,0,0,1,2.35-1.84A2.15,2.15,0,0,1,16.28,41.54Z"/><ellipse cx="32" cy="29.44" rx="3.5" ry="3.52"/><path class="b" d="M30.25,28.56h1.21l.63-1.28,1.57.79-.88,1.76a.87.87,0,0,1-.78.49H30.25Z"/><path class="c" d="M25.2,24.7V50h1.69V40.49A4.91,4.91,0,0,1,32,35.75,4.91,4.91,0,0,1,37,40.49V50h1.69V23.12H25.2Zm6.71,0a4.74,4.74,0,1,1-4.69,4.74A4.71,4.71,0,0,1,31.91,24.7Z"/><path d="M32,37c-2.2,0-4,1.45-4,3.24V50h8V40.24C36,38.45,34.17,37,32,37Z"/><path class="c" d="M10,35.38H24.11V24.3H10Z"/><rect class="b" x="11.57" y="27.51" width="4.71" height="5.09"/><rect class="b" x="17.84" y="27.51" width="4.7" height="5.09"/><rect class="c" x="39.8" y="24.3" width="14.11" height="11.08"/><rect class="b" x="47.64" y="27.51" width="4.7" height="5.09"/><rect class="b" x="41.36" y="27.51" width="4.7" height="5.09"/><path class="d" d="M26.7,19.18H12.85L9.91,23.12h14.2Z"/><rect class="c" x="39.8" y="36.54" width="14.11" height="13.42"/><path class="b" d="M47.64,41.54a2.42,2.42,0,0,1,4.7,0v5.53a.71.71,0,0,1-.78.61H48.42a.71.71,0,0,1-.78-.61Z"/><path class="b" d="M41.36,41.54a2.15,2.15,0,0,1,2.36-1.84,2.14,2.14,0,0,1,2.35,1.84v5.53a.71.71,0,0,1-.79.61H42.15a.72.72,0,0,1-.79-.61Z"/><path class="d" d="M39.8,23.12h14l-3.52-3.94H37Z"/><polygon class="e" points="31.95 10.54 24.11 23.77 39.8 23.77 31.95 10.54"/></svg>
