<?xml version="1.0" ?><svg id="Layer_1" style="enable-background:new 0 0 250 250;" version="1.1" viewBox="0 0 250 250" xml:space="preserve" xmlns="http://www.w3.org/2000/svg" xmlns:xlink="http://www.w3.org/1999/xlink"><style type="text/css">
	.st0{fill:#73D84A;}
	.st1{fill:#46E6F2;}
	.st2{fill:#FCC12D;}
	.st3{fill:none;stroke:#231F20;stroke-width:3;stroke-linecap:round;stroke-linejoin:round;stroke-miterlimit:10;}
	.st4{fill:none;stroke:#FFFFFF;stroke-width:3;stroke-linecap:round;stroke-linejoin:round;stroke-miterlimit:10;}
</style><path class="st0" d="M155.3,188H97.8c-13.1,0-23.5-10.9-23-23.9L77.5,95c0.5-13.9,11.9-24.8,25.8-24.8h46.4  c13.9,0,25.3,11,25.8,24.8l2.7,69.1C178.8,177.2,168.3,188,155.3,188z" id="XMLID_14_"/><path class="st1" d="M149.8,70.1c5.9,0,11.3,2,15.7,5.3V54.1h-18.3v16H149.8z" id="XMLID_13_"/><path class="st1" d="M103.3,70.1h4.9v-16H89.9v19.8C93.8,71.5,98.4,70.1,103.3,70.1z" id="XMLID_12_"/><path class="st1" d="M140.7,173.9h-28.4c-9,0-16.1-7.5-15.6-16.5l1.3-23.2H155l1.3,23.2  C156.8,166.3,149.7,173.9,140.7,173.9z" id="XMLID_11_"/><rect class="st2" height="12.2" id="XMLID_10_" width="17.2" x="117" y="112.1"/><path class="st3" d="M146.7,67c5.9,0,11.3,2,15.7,5.3V51H144v16H146.7z" id="XMLID_9_"/><path class="st3" d="M100.2,67h4.9V51H86.8v19.8C90.7,68.4,95.3,67,100.2,67z" id="XMLID_8_"/><path class="st4" d="M131.5,114.5h14.7c7.7,0,15-3.1,20.4-8.6l4.9-5" id="XMLID_7_"/><path class="st4" d="M75.3,100.3l5.5,5.6c5.4,5.5,12.7,8.6,20.4,8.6h12" id="XMLID_6_"/><path class="st4" d="M137.6,170.8h-28.4c-9,0-16.1-7.5-15.6-16.5l1.3-23.2h56.8l1.3,23.2  C153.7,163.2,146.6,170.8,137.6,170.8z" id="XMLID_5_"/><rect class="st3" height="12.2" id="XMLID_4_" width="17.2" x="113.9" y="109"/><path class="st3" d="M113.9,67v-1c0-5.2,4.2-9.3,9.3-9.3h0c5.2,0,9.3,4.2,9.3,9.3v1" id="XMLID_3_"/><path class="st3" d="M152.2,184.9H94.7c-13.1,0-23.5-10.9-23-23.9l2.7-69.1C75,78,86.4,67,100.2,67h46.4  c13.9,0,25.3,11,25.8,24.8l2.7,69.1C175.7,174.1,165.2,184.9,152.2,184.9z" id="XMLID_2_"/></svg>