<svg xmlns="http://www.w3.org/2000/svg" viewBox="0 0 32 32"><defs><style>.a{fill:#fff;}.b{fill:#f6ae2d;}.c{fill:#000842;}</style></defs><rect class="a" width="32" height="32"/><path class="b" d="M5.87,14.9a10.45,10.45,0,0,1,2.78-4.53L7.51,9.17a12.15,12.15,0,0,0-3.22,5.28Z"/><path class="b" d="M25.74,14.9l1.61-.48a12.44,12.44,0,0,0-3.22-5.28L23,10.34A10.77,10.77,0,0,1,25.74,14.9Z"/><path class="b" d="M18.46,27a10.62,10.62,0,0,1-5.34,0l-.42,1.61a13,13,0,0,0,3.16.41,11.85,11.85,0,0,0,3-.38Z"/><path class="c" d="M1.81,18a.12.12,0,0,0-.17.1v6.66a.52.52,0,0,0,.31.49l4.89,2.23a.12.12,0,0,0,.17-.1V20.47s0-.11-.07-.11Z"/><path class="c" d="M12.62,16.74,7.88,14.58a.45.45,0,0,0-.42,0L2.69,16.74c-.11,0-.11.17,0,.24L7.6,19.21h.11L12.62,17C12.73,17,12.73,16.81,12.62,16.74Z"/><path class="c" d="M13.5,18,8.4,20.36s-.07.07-.07.11v6.9c0,.11.11.18.18.11l4.88-2.23a.54.54,0,0,0,.32-.49V18.13A.15.15,0,0,0,13.5,18Z"/><path class="c" d="M17.86,18a.13.13,0,0,0-.18.1v6.66a.53.53,0,0,0,.32.49l4.88,2.23a.12.12,0,0,0,.17-.1V20.47s0-.11-.07-.11Z"/><path class="c" d="M28.67,16.74l-4.75-2.16a.43.43,0,0,0-.41,0l-4.78,2.16c-.11,0-.11.17,0,.24l4.92,2.23h.1L28.67,17C28.77,17,28.77,16.81,28.67,16.74Z"/><path class="c" d="M29.54,18l-5.09,2.33s-.07.07-.07.11v6.9c0,.11.1.18.17.11l4.88-2.23a.54.54,0,0,0,.32-.49V18.13A.15.15,0,0,0,29.54,18Z"/><path class="c" d="M10,12.74,14.83,15a.12.12,0,0,0,.17-.1V8s0-.1-.07-.1L9.85,5.53a.13.13,0,0,0-.17.11v6.65A.54.54,0,0,0,10,12.74Z"/><path class="c" d="M15.6,6.72h.1l4.91-2.23c.1,0,.1-.17,0-.24l-4.74-2.2a.43.43,0,0,0-.41,0L10.72,4.21a.14.14,0,0,0,0,.25Z"/><path class="c" d="M16.33,8v6.9c0,.1.1.17.17.1l4.88-2.23a.55.55,0,0,0,.31-.48V5.64c0-.11-.11-.18-.17-.11L16.43,7.87C16.33,7.87,16.33,7.9,16.33,8Z"/></svg>