<svg xmlns="http://www.w3.org/2000/svg" viewBox="0 0 32 32"><defs><style>.a{fill:#fff;}.b{fill:#f6ae2d;}.c{fill:#000842;}</style></defs><rect class="a" width="32" height="32"/><path class="b" d="M2,26.75h9V18.19H2Zm5-6a1.51,1.51,0,1,1,3,0v4.53a.5.5,0,0,1-.5.5h-2a.5.5,0,0,1-.5-.5Zm-4,0a1.5,1.5,0,1,1,3,0v4.53a.5.5,0,0,1-.5.5h-2a.5.5,0,0,1-.5-.5Z"/><polygon class="b" points="16.01 3 12.42 8.62 19.6 8.62 16.01 3"/><path class="c" d="M12.2,7.11H4.28l-1.88,3H11v-1a.5.5,0,0,1,.08-.27h0Z"/><path d="M16,15.67a2,2,0,1,0-2-2A2,2,0,0,0,16,15.67Zm-1-2.52h.69l.36-.73.9.45-.5,1a.51.51,0,0,1-.45.28H15Z"/><path class="b" d="M12,10.63V26.75h1v-6a3,3,0,1,1,6,0v6h1V9.62H12Zm4,0a3,3,0,1,1-3,3A3,3,0,0,1,16,10.63Z"/><path d="M16,18.69a2,2,0,0,0-2,2v6h4v-6A2,2,0,0,0,16,18.69Z"/><path class="b" d="M2,17.18h9v-6H2Zm5-1v-4h3v4Zm-4,0v-4H6v4Z"/><path class="b" d="M21,11.14v6h9v-6Zm4,1v4H22v-4Zm4,0v4H26v-4Z"/><path class="b" d="M21,26.75h9V18.19H21Zm5-6a1.5,1.5,0,1,1,3,0v4.53a.5.5,0,0,1-.5.5h-2a.5.5,0,0,1-.5-.5Zm-4,0a1.51,1.51,0,1,1,3,0v4.53a.5.5,0,0,1-.5.5h-2a.5.5,0,0,1-.5-.5Z"/><path class="c" d="M21,9.12v1h8.51l-2.25-3H19.82l1.11,1.74h0A.5.5,0,0,1,21,9.12Z"/></svg>
