<svg xmlns="http://www.w3.org/2000/svg" viewBox="0 0 32 32"><defs><style>.a{fill:#fff;}.b{fill:#000842;}.c{fill:#f6ae2d;stroke:#000842;stroke-miterlimit:10;}</style></defs><rect class="a" width="32" height="32"/><path class="b" d="M22.35,12.9H15.56c-2,0-3.63,2-3.63,4.33V30H26V17.23C26,14.86,24.35,12.9,22.35,12.9Z"/><path class="b" d="M19,2a4.91,4.91,0,0,0-5,4.83,5,5,0,0,0,10,0A4.9,4.9,0,0,0,19,2Z"/><path class="c" d="M29.7,20.26l-2.2-2.13H14.56A6.45,6.45,0,0,0,9,15a6.32,6.32,0,0,0-6.43,6.21A6.34,6.34,0,0,0,9,27.44a6.46,6.46,0,0,0,5.56-3.12h2.6l2.06-2,1.58,1.51L22.3,22.4l1.56,1.49,1.58-1.51L27,23.89l2.69-2.58C30.09,20.92,30.1,20.65,29.7,20.26ZM6.18,22.85a1.69,1.69,0,0,1-1.71-1.66,1.67,1.67,0,0,1,1.71-1.65,1.68,1.68,0,0,1,1.7,1.65A1.7,1.7,0,0,1,6.18,22.85Z"/></svg>